<svg width="96" height="96" viewBox="0 0 96 96" fill="none" xmlns="http://www.w3.org/2000/svg">
<path d="M72 12H24C17.2 12 12 17.2 12 24V72C12 78.8 17.2 84 24 84H72C78.8 84 84 78.8 84 72V24C84 17.2 78.8 12 72 12ZM48 36C54.8 36 60 41.2 60 48C60 54.8 54.8 60 48 60C41.2 60 36 54.8 36 48C36 41.2 41.2 36 48 36ZM63.2 28C63.2 25.2 65.6 23.2 68 23.2C70.4 23.2 72.8 25.6 72.8 28C72.8 30.4 70.8 32.8 68 32.8C65.2 32.8 63.2 30.8 63.2 28V28ZM72 76H24C21.6 76 20 74.4 20 72V48H28C28 59.2 36.8 68 48 68C59.2 68 68 59.2 68 48H76V72C76 74.4 74.4 76 72 76Z" fill="black"/>
</svg>
